<svg width="171px" height="171px" viewBox="0 0 1024.00 1024.00" xmlns="http://www.w3.org/2000/svg"
    fill="#3776ab" stroke="#3776ab" stroke-width="0.01024">
    <g id="SVGRepo_bgCarrier" stroke-width="0">
        <rect x="0" y="0" width="1024.00" height="1024.00" rx="163.84" fill="#3776ab"
            strokewidth="0"></rect>
    </g>
    <g id="SVGRepo_tracerCarrier" stroke-linecap="round" stroke-linejoin="round" stroke="#CCCCCC"
        stroke-width="6.144"></g>
    <g id="SVGRepo_iconCarrier">
        <circle cx="512" cy="512" r="512" style="fill:#3776ab"></circle>
        <path transform="translate(428.423 184.256)"
            d="M81.7 73.2c-129.9 0-121.8 56.3-121.8 56.3l.1 58.4H84v17.5H-89.2s-83.1-9.4-83.1 121.7 72.6 126.4 72.6 126.4h43.3v-60.8s-2.3-72.6 71.4-72.6h123s69.1 1.1 69.1-66.8V141.1s10.4-67.9-125.4-67.9zm-68.3 39.3c12.3 0 22.3 10 22.3 22.3s-10 22.3-22.3 22.3-22.3-10-22.3-22.3 9.9-22.3 22.3-22.3zm72 469.8c129.9 0 121.8-56.3 121.8-56.3l-.1-58.4h-124v-17.5h173.2s83.1 9.4 83.1-121.7S266.8 202 266.8 202h-43.3v60.8s2.3 72.6-71.4 72.6h-123S-40 334.3-40 402.2v112.2s-10.3 67.9 125.4 67.9zm68.4-39.3c-12.3 0-22.3-10-22.3-22.3s10-22.3 22.3-22.3 22.3 10 22.3 22.3c0 12.4-10 22.3-22.3 22.3z"
            style="fill:#fff"></path>
    </g>
</svg>